inDegrees=yes
name=ik_orientation_Tpose_Zug
DataType=double
version=3
OpenSimVersion=4.3-2021-08-27-4bc7ad9
endheader
time	pelvis_tilt	pelvis_list	pelvis_rotation	pelvis_tx	pelvis_ty	pelvis_tz	hip_flexion_r	hip_adduction_r	hip_rotation_r	knee_angle_r	knee_angle_r_beta	ankle_angle_r	subtalar_angle_r	mtp_angle_r	hip_flexion_l	hip_adduction_l	hip_rotation_l	knee_angle_l	knee_angle_l_beta	ankle_angle_l	subtalar_angle_l	mtp_angle_l	lumbar_extension	lumbar_bending	lumbar_rotation	arm_flex_r	arm_add_r	arm_rot_r	elbow_flex_r	pro_sup_r	wrist_flex_r	wrist_dev_r	arm_flex_l	arm_add_l	arm_rot_l	elbow_flex_l	pro_sup_l	wrist_flex_l	wrist_dev_l
10	-2.531315942250515	-1.653123900690002	147.2557108257296	0	0.9399999999999999	0	45.02951486400579	-9.99227778315916	0	60.23885565836045	1.051366368872006	-4.999322513827145	0	0	45.02951486400579	-9.99227778315916	0	60.23885565836045	1.051366368872006	-4.999322513827145	0	0	-6.14004981545136	-9.839184297729126	-2.648980345366002	-89.97878294455265	-56.44963625416642	-37.85398304093811	149.993702401023	44.92272386467539	0	0	0	-14.87958410601069	0	75.03805964377132	44.92272386467539	0	0
10.01	-2.518519102022421	-1.670277702831647	147.2692767774705	0	0.9399999999999999	0	45.02950770390856	-9.992284274790443	0	60.23880989114011	1.051365570083322	-4.999323255445038	0	0	45.02950770390856	-9.992284274790443	0	60.23880989114011	1.051365570083322	-4.999323255445038	0	0	-6.212300444076977	-9.865265585698337	-2.684458691589087	-89.97915118648258	-55.99251086339081	-37.90145581180266	149.9937246478762	44.92277532420995	0	0	0	-14.87959913405437	0	75.03805045343461	44.92277532420995	0	0
10.02	-2.542796240262172	-1.674885534676951	147.2658774644149	0	0.9399999999999999	0	45.02949905122804	-9.99229216672328	0	60.23875490346868	1.051364610367407	-4.999324157788396	0	0	45.02949905122804	-9.99229216672328	0	60.23875490346868	1.051364610367407	-4.999324157788396	0	0	-6.879508426690143	-10.54701374371355	-2.788556128093248	-89.98113103921565	-55.44394222659503	-38.11839810813554	149.9940086409316	44.92283782846437	0	0	0	-14.8796172217496	0	75.03803934729413	44.92283782846437	0	0
10.03	-2.553150266926456	-1.650635804707365	147.235854741979	0	0.9399999999999999	0	45.02949035983906	-9.992300070604932	0	60.23869954266758	1.051363644139152	-4.999325060954559	0	0	45.02949035983906	-9.992300070604932	0	60.23869954266758	1.051363644139152	-4.999325060954559	0	0	-6.903275254966831	-10.44532390780095	-2.767547954246319	-89.98112845220246	-55.23297307813361	-38.01208466871676	149.9940087156443	44.92290046055774	0	0	0	-14.87963542154762	0	75.03802819146929	44.92290046055774	0	0
10.04	-2.569952061322621	-1.638505981665186	147.223374101928	0	0.9399999999999999	0	45.02948016245161	-9.992309352330981	0	60.23863468166883	1.051362512101167	-4.999326121507356	0	0	45.02948016245161	-9.992309352330981	0	60.23863468166883	1.051362512101167	-4.999326121507356	0	0	-7.339639350001314	-10.84655624018582	-2.819387505632221	-89.98219495638337	-54.86634933351638	-37.85294352929776	149.9942130569158	44.92297400785099	0	0	0	-14.87965675562121	0	75.0380151026215	44.92297400785099	0	0
10.05	-2.557048792373462	-1.657249662949175	147.2429490202027	0	0.9399999999999999	0	45.02947341349741	-9.992315480576449	0	60.2385916987111	1.051361761907033	-4.999326821272794	0	0	45.02947341349741	-9.992315480576449	0	60.2385916987111	1.051361761907033	-4.999326821272794	0	0	-7.128446317939008	-10.58662784536436	-2.790121492044899	-89.98176087591607	-54.70370518913575	-37.91226366171217	149.9940880640158	44.92302259275107	0	0	0	-14.87967088979045	0	75.03800644000718	44.92302259275107	0	0
10.06	-2.567767099607944	-1.640408212863792	147.2368454995878	0	0.9399999999999999	0	45.02946515056761	-9.992322921472063	0	60.23853872687576	1.051360837374095	-4.999327669540425	0	0	45.02946515056761	-9.992322921472063	0	60.23853872687576	1.051360837374095	-4.999327669540425	0	0	-7.361325212549559	-10.78421380715922	-2.786369602308872	-89.9823569687812	-54.48546957658332	-37.78674239036137	149.9941893015013	44.92308167147967	0	0	0	-14.8796882772968	0	75.03799583413038	44.92308167147967	0	0
10.07	-2.57293482133489	-1.64120023487062	147.2462744301489	0	0.9399999999999999	0	45.02945833524412	-9.992329109071378	0	60.23849535941056	1.051360080469039	-4.999328375835828	0	0	45.02945833524412	-9.992329109071378	0	60.23849535941056	1.051360080469039	-4.999328375835828	0	0	-7.131623414229926	-10.45021784346385	-2.7690562575442	-89.98170068813445	-54.37007074113639	-37.87355674840055	149.9940423959468	44.92313073614664	0	0	0	-14.87970254400766	0	75.0379870863278	44.92313073614664	0	0
10.08	-2.591511334941355	-1.616615570582933	147.2303897581642	0	0.9399999999999999	0	45.02944756660862	-9.992338879698032	0	60.23842682241657	1.051358884272835	-4.999329490870505	0	0	45.02944756660862	-9.992338879698032	0	60.23842682241657	1.051358884272835	-4.999329490870505	0	0	-7.579615691565746	-10.85201503612793	-2.807880234454562	-89.982747636464	-54.08424011491519	-37.79940636265962	149.9942433645394	44.9232082249118	0	0	0	-14.87972509144847	0	75.03797326425496	44.9232082249118	0	0
10.09	-2.590056152069185	-1.622748058735885	147.2351544680123	0	0.9399999999999999	0	45.02943985195954	-9.99234570196159	0	60.23837671265812	1.051358009692562	-4.999330265583437	0	0	45.02943985195954	-9.99234570196159	0	60.23837671265812	1.051358009692562	-4.999330265583437	0	0	-7.605311161659043	-10.86176561572029	-2.826929393782581	-89.98286107335518	-53.94481429548893	-37.99118982219295	149.9942251254457	44.92326257648326	0	0	0	-14.8797414832355	0	75.03796336212282	44.92326257648326	0	0
10.1	-2.604501552244165	-1.610047858465477	147.2274144195367	0	0.9399999999999999	0	45.0294318497789	-9.992352947924331	0	60.23832576097012	1.051357120417847	-4.999331091866463	0	0	45.0294318497789	-9.992352947924331	0	60.23832576097012	1.051357120417847	-4.999331091866463	0	0	-8.175196775792315	-11.3403296711272	-2.916429221027887	-89.9839901977239	-53.43172623880538	-38.03493666418468	149.9944447299144	44.92332007407211	0	0	0	-14.87975824683565	0	75.03795309093073	44.92332007407211	0	0
10.11	-2.611164413575959	-1.580691452796118	147.2364392048565	0	0.9399999999999999	0	45.02893742858898	-9.992806373479608	0	60.23529509098071	1.051304225247991	-4.99938214714562	0	0	45.02893742858898	-9.992806373479608	0	60.23529509098071	1.051304225247991	-4.99938214714562	0	0	-7.681537014789756	-10.58315299646682	-2.792595189734218	-89.98290291052707	-53.15626673339055	-37.87532536680371	149.9942107391007	44.92693785281744	0	0	0	-14.88076101235299	0	75.03731847715109	44.92693785281744	0	0
10.12	-2.630496910815222	-1.582558253042538	147.2302017570549	0	0.9399999999999999	0	45.0289305684388	-9.992812326420571	0	60.23525131531178	1.051303461218436	-4.999382813744742	0	0	45.0289305684388	-9.992812326420571	0	60.23525131531178	1.051303461218436	-4.999382813744742	0	0	-7.267262515657356	-10.11024271844783	-2.737946322180675	-89.98185863220922	-53.20871925797277	-37.84195409406544	149.9939916359059	44.92698568998364	0	0	0	-14.88077548838994	0	75.03730967181055	44.92698568998364	0	0
10.13	-2.649693161397527	-1.573711760067923	147.2263104191611	0	0.9399999999999999	0	45.0289218483577	-9.992819898312391	0	60.23519573575394	1.051302491172154	-4.999383661567371	0	0	45.0289218483577	-9.992819898312391	0	60.23519573575394	1.051302491172154	-4.999383661567371	0	0	-8.337978975877762	-11.21089990301187	-2.906956073633412	-89.98418438202872	-52.79089181110669	-37.47087285694645	149.9944947961552	44.92704653604627	0	0	0	-14.88079387573354	0	75.03729847915717	44.92704653604627	0	0
10.14	-2.642670173525102	-1.577019941443831	147.2207665882458	0	0.9399999999999999	0	45.02891431447135	-9.992826402008854	0	60.23514749608574	1.051301649231114	-4.999384388928508	0	0	45.02891431447135	-9.992826402008854	0	60.23514749608574	1.051301649231114	-4.999384388928508	0	0	-8.813213039510794	-11.73099691296935	-3.009707132446265	-89.98508393741305	-52.66144304287401	-37.4479331262123	149.9946659069995	44.9270988532498	0	0	0	-14.88080981514742	0	75.03728880904293	44.9270988532498	0	0
10.15	-2.654407860333263	-1.569274809586426	147.2257834303522	0	0.9399999999999999	0	45.02890596819315	-9.992833502514895	0	60.23509342489965	1.051300705510887	-4.999385180817957	0	0	45.02890596819315	-9.992833502514895	0	60.23509342489965	1.051300705510887	-4.999385180817957	0	0	-8.948880158243616	-11.73080005724241	-3.013995522047276	-89.98528304686479	-52.31616568141658	-37.66101423998264	149.9946530686047	44.92715611776818	0	0	0	-14.88082762327054	0	75.03727809618317	44.92715611776818	0	0
10.16	-2.668697683269796	-1.542403360157504	147.2231308109433	0	0.9399999999999999	0	45.02889651181863	-9.992841601916636	0	60.2350325265658	1.051299642634452	-4.999386085105623	0	0	45.02889651181863	-9.992841601916636	0	60.2350325265658	1.051299642634452	-4.999386085105623	0	0	-9.011465438013815	-11.64222808962218	-3.008658038215293	-89.98532336438177	-52.03102872806865	-37.88697159422586	149.994620699468	44.92722136699123	0	0	0	-14.88084771592496	0	75.03726595846034	44.92722136699123	0	0
10.17	-2.692918942305641	-1.547376750139928	147.22240039107	0	0.9399999999999999	0	45.0288879563595	-9.992848981495948	0	60.23497779253552	1.051298687345411	-4.999386909891356	0	0	45.0288879563595	-9.992848981495948	0	60.23497779253552	1.051298687345411	-4.999386909891356	0	0	-9.541476780064798	-12.00693908219838	-3.097700218936901	-89.98611745497377	-51.42026656146435	-37.98873830139424	149.994778926268	44.9272807529199	0	0	0	-14.88086581095144	0	75.03725497710714	44.9272807529199	0	0
10.18	-2.706031912656114	-1.518539537169461	147.2141647917323	0	0.9399999999999999	0	45.02887672300636	-9.992858636730872	0	60.2349057491726	1.051297429951523	-4.999387988148828	0	0	45.02887672300636	-9.992858636730872	0	60.2349057491726	1.051297429951523	-4.999387988148828	0	0	-9.867663292001058	-12.10938518633489	-3.127052895489627	-89.986552729766	-50.91468491580918	-38.15626237425828	149.9948437260326	44.927358504796	0	0	0	-14.88088961415027	0	75.03724055854492	44.927358504796	0	0
10.19	-2.702908376385437	-1.539678113104664	147.2242381928583	0	0.9399999999999999	0	45.02886860715114	-9.99286554209232	0	60.23485329725763	1.051296514492908	-4.999388757710167	0	0	45.02886860715114	-9.99286554209232	0	60.23485329725763	1.051296514492908	-4.999388757710167	0	0	-9.920639318476779	-12.12955511794837	-3.156609055852197	-89.98666127403395	-50.67875124234717	-38.18843010742925	149.9948474905313	44.92741421527199	0	0	0	-14.88090690829916	0	75.03723014144458	44.92741421527199	0	0
10.2	-2.720001390501802	-1.506766728470149	147.2234630440065	0	0.9399999999999999	0	45.02885736324966	-9.992875182340004	0	60.23478112450829	1.051295254840802	-4.999389833379206	0	0	45.02885736324966	-9.992875182340004	0	60.23478112450829	1.051295254840802	-4.999389833379206	0	0	-10.17875968316564	-12.25569024221467	-3.186161620031719	-89.98694829198837	-50.48598256825756	-38.07313588997577	149.9949209921309	44.92749189485755	0	0	0	-14.88093075373491	0	75.03721570934297	44.92749189485755	0	0
10.21	-2.718489033565171	-1.515298278803807	147.2368827004943	0	0.9399999999999999	0	45.02884787968664	-9.992883307491711	0	60.23472025713461	1.051294192504724	-4.999390739668996	0	0	45.02884787968664	-9.992883307491711	0	60.23472025713461	1.051294192504724	-4.999390739668996	0	0	-10.42047447209869	-12.38388977998649	-3.230238916255793	-89.98728314487813	-50.08330760962104	-37.9985121848196	149.9949978266591	44.92755738147472	0	0	0	-14.88095086697743	0	75.03720353672253	44.92755738147472	0	0
10.22	-2.708539663684359	-1.524234318869713	147.2433525103597	0	0.9399999999999999	0	45.02883845004782	-9.992891358333852	0	60.23465960050007	1.051293133846738	-4.999391636906414	0	0	45.02883845004782	-9.992891358333852	0	60.23465960050007	1.051293133846738	-4.999391636906414	0	0	-10.67905983071709	-12.52735150089786	-3.289285809787781	-89.98760572775114	-49.73193860055806	-38.01858352503833	149.9950616087869	44.92762231484654	0	0	0	-14.88097090005795	0	75.03719143331625	44.92762231484654	0	0
10.23	-2.707249320420514	-1.537079200837933	147.2447813526857	0	0.9399999999999999	0	45.02883192138206	-9.992896927887326	0	60.23461759905004	1.051292400783145	-4.99939225741281	0	0	45.02883192138206	-9.992896927887326	0	60.23461759905004	1.051292400783145	-4.99939225741281	0	0	-10.574901524585	-12.41758711110681	-3.287435926118648	-89.98748595153828	-49.68294108415614	-37.91425026766913	149.9950207578602	44.9276672457428	0	0	0	-14.88098477270264	0	75.03718305345194	44.9276672457428	0	0
